HIERARCHY
ROOT hip
{
	OFFSET 0.000000 0.000000 0.000000 
	CHANNELS 6 Xposition Yposition Zposition Xrotation Zrotation Yrotation
	JOINT abdomen
	{
		OFFSET 0.000000 3.402643 0.000000 
		CHANNELS 3 Xrotation Zrotation Yrotation
		JOINT chest
		{
			OFFSET 0.000000 8.438565 -0.680529 
			CHANNELS 3 Xrotation Zrotation Yrotation
			JOINT neck
			{
				OFFSET 0.000000 10.207942 -0.272212 
				CHANNELS 3 Xrotation Zrotation Yrotation
				JOINT head
				{
					OFFSET 0.000000 3.130431 0.000000 
					CHANNELS 3 Xrotation Zrotation Yrotation
					End Site
					{
						OFFSET 0.000000 3.130435 0.000000 
					}
				}
			}
			JOINT lCollar
			{
				OFFSET 3.470700 6.669187 -0.816635 
				CHANNELS 3 Yrotation Zrotation Xrotation
				JOINT lShldr
				{
					OFFSET 3.198488 0.000000 0.000000 
					CHANNELS 3 Zrotation Yrotation Xrotation
					JOINT lForeArm
					{
						OFFSET 10.139888 0.000000 0.000000 
						CHANNELS 3 Yrotation Zrotation Xrotation
						JOINT lHand
						{
							OFFSET 8.370511 0.000000 0.000000 
							CHANNELS 3 Zrotation Yrotation Xrotation
							End Site
							{
								OFFSET 4.083176 0.000000 0.000000 
							}
						}
					}
				}
			}
			JOINT rCollar
			{
				OFFSET -3.470700 6.669187 -0.816635 
				CHANNELS 3 Yrotation Zrotation Xrotation
				JOINT rShldr
				{
					OFFSET -3.198488 0.000000 0.000000 
					CHANNELS 3 Zrotation Yrotation Xrotation
					JOINT rForeArm
					{
						OFFSET -10.139888 0.000000 0.000000 
						CHANNELS 3 Yrotation Zrotation Xrotation
						JOINT rHand
						{
							OFFSET -8.370511 0.000000 0.000000 
							CHANNELS 3 Zrotation Yrotation Xrotation
							End Site
							{
								OFFSET -4.083176 0.000000 0.000000 
							}
						}
					}
				}
			}
		}
	}
	JOINT lThigh
	{
		OFFSET 5.308129 -1.633274 1.361059 
		CHANNELS 3 Xrotation Zrotation Yrotation
		JOINT lShin
		{
			OFFSET -2.041588 -20.007561 0.000000 
			CHANNELS 3 Xrotation Zrotation Yrotation
			JOINT lFoot
			{
				OFFSET 0.000000 -19.190928 -1.224953 
				CHANNELS 3 Xrotation Yrotation Zrotation
				End Site
				{
					OFFSET 0.000000 -2.449906 4.627600 
				}
			}
		}
	}
	JOINT rThigh
	{
		OFFSET -5.308129 -1.633274 1.361059 
		CHANNELS 3 Xrotation Zrotation Yrotation
		JOINT rShin
		{
			OFFSET 2.041588 -20.007561 0.000000 
			CHANNELS 3 Xrotation Zrotation Yrotation
			JOINT rFoot
			{
				OFFSET 0.000000 -19.190928 -1.224953 
				CHANNELS 3 Xrotation Yrotation Zrotation
				End Site
				{
					OFFSET 0.000000 -2.449906 4.627600 
				}
			}
		}
	}
}
MOTION
Frames: 18
Frame Time: 0.033333
-54.347294 41.305393 -0.913401 179.990234 179.472656 0.527434 20.722656 -1.191406 -0.576172 0.000000 0.000000 0.000000 -27.285156 6.738282 -38.582836 5.585938 2.041015 8.398438 -2.822266 -0.097656 -0.019515 -50.439453 -11.552734 -17.656248 -9.345703 -5.908203 5.634766 0.429688 -1.162109 -6.113282 2.792969 0.068359 -0.019531 31.464844 29.648441 -69.633842 83.486328 1.728516 3.964550 -1.816406 -0.927734 -5.439453 -41.697128 15.555923 -4.612350 66.298523 -2.212783 -4.712050 -25.403807 0.707257 -9.406807 -40.693714 -16.179987 11.665811 65.280586 -5.653178 5.168991 -27.474251 -5.158155 22.091040 
-54.347294 41.855366 -0.456700 179.990234 179.648438 0.527404 20.722656 -0.537109 -0.322266 0.000000 0.000000 0.000000 -27.382811 6.777344 -37.537907 5.585938 2.041015 6.992188 -2.822266 -0.097656 -0.019515 -50.908203 -11.259766 -18.388668 -7.929688 -5.927735 5.684602 0.761719 -1.132810 -6.123224 2.792969 0.068359 -0.019531 30.634768 29.423830 -71.733482 83.310547 1.699219 4.130570 -1.865234 -0.585938 -5.429678 -39.528988 16.122013 -3.699378 63.677826 -2.203672 -4.336787 -24.965773 0.378870 -10.007190 -39.614201 -16.854645 13.035063 62.383533 -4.245859 5.000070 -25.233763 -4.187538 22.455627 
-54.347294 42.361919 -0.456700 179.990234 179.648438 0.527404 20.722656 -0.537109 -0.322266 0.000000 0.000000 0.000000 -27.470701 6.855469 -36.502739 5.585938 2.041015 5.410156 -2.822266 -0.097656 -0.019515 -51.416019 -10.791016 -19.121094 -6.513672 -5.937500 5.762728 1.289063 -1.083984 -6.132813 2.792969 0.068359 -0.019531 29.853518 29.033205 -74.008934 82.958984 1.708984 4.130568 -1.914063 -0.048828 -5.439453 -37.241119 16.824007 -2.878500 60.705036 -2.389071 -4.213893 -24.796673 0.643126 -10.455088 -38.581100 -17.411642 14.333975 59.473488 -2.663787 5.168332 -23.038841 -3.486556 23.180677 
-54.347294 42.846764 0.000000 179.990234 179.824219 0.527374 20.722656 -0.537109 -0.322266 0.000000 0.000000 0.000000 -27.587891 6.923829 -35.291790 5.585938 2.041015 3.994141 -2.822266 -0.097656 -0.019515 -52.060547 -10.537110 -19.796705 -5.107422 -5.947265 5.830078 1.826172 -1.015620 -6.142716 2.792969 0.068359 -0.019531 29.072266 28.642580 -75.844925 82.783203 1.728516 3.954784 -1.943359 0.292969 -5.439404 -34.568092 17.332764 -2.087770 57.865849 -2.388786 -4.171120 -24.336014 0.512922 -11.147963 -37.735138 -17.938049 15.850183 56.584812 -1.220250 4.610424 -20.587463 -2.403259 23.694155 
-54.347294 43.295433 0.000000 179.990234 179.824219 0.527374 20.722656 -0.537109 -0.322266 0.000000 0.000000 0.000000 -27.675783 6.972656 -34.257813 5.585938 2.041015 2.587890 -2.822266 -0.097656 -0.019515 -52.558594 -10.058594 -20.724360 -3.505859 -5.947266 5.917969 2.353516 -0.957025 -6.152462 2.792969 0.068359 -0.019531 28.291016 28.232422 -77.934837 82.607422 1.699219 4.130570 -1.992188 0.820313 -5.429688 -32.219341 17.828428 -1.173491 55.239719 -2.570807 -3.873384 -24.095093 0.477187 -11.751729 -36.645641 -18.465908 17.131456 53.631378 -0.007975 4.253095 -18.506180 -1.441049 24.504110 
-54.347294 43.729622 0.456700 179.990234 179.990234 0.527345 20.722656 -0.537109 -0.322266 0.000000 0.000000 0.000000 -27.763672 7.041016 -33.212891 5.585938 2.041015 1.015625 -2.822266 -0.097656 -0.019515 -53.066406 -9.599609 -21.435551 -2.099609 -5.947265 5.987339 3.398438 -0.849609 -6.162237 2.792969 0.068359 -0.019531 27.744139 27.734373 -79.921875 82.431641 1.699219 4.130570 -2.050781 1.523438 -5.439454 -29.632587 18.170197 -0.121998 52.441708 -2.562266 -3.486861 -23.957472 0.037711 -12.434549 -35.625393 -19.168222 18.265814 50.841713 1.398570 3.889233 -16.318800 -0.385184 24.933893 
-54.347294 44.098682 0.456700 179.990234 179.990234 0.527345 20.722656 -0.537109 -0.322266 0.000000 0.000000 0.000000 -27.861326 7.304688 -32.020241 5.585938 2.041015 -0.224609 -2.822266 -0.097656 -0.019515 -53.701176 -9.345703 -22.128908 -0.693359 -5.957031 6.036170 3.398438 -0.849609 -6.162237 2.792969 0.068359 -0.019531 26.972658 27.343752 -81.938873 82.246094 1.708984 4.130859 -2.050781 1.523438 -5.439454 -27.244101 18.768162 0.900992 49.594315 -2.727948 -3.535956 -23.550932 0.056978 -12.822212 -34.710720 -19.696249 19.745390 48.029045 2.814706 3.651710 -14.447766 0.558558 25.220715 
-54.803989 44.091446 0.913401 179.990234 179.990234 0.527345 20.722656 -0.537109 -0.322266 0.000000 0.000000 0.000000 -27.861326 7.304688 -32.020241 5.585938 2.041015 -0.224609 -2.822266 -0.097656 -0.019515 -52.900391 -9.697266 -22.374691 -0.693359 -5.957031 6.036170 3.398438 -0.849609 -6.162237 2.792969 0.068359 -0.019531 26.972658 27.343752 -81.938873 82.246094 1.708984 4.130859 -2.050781 1.523438 -5.439454 -27.244101 18.768162 0.900992 49.594315 -2.727947 -3.535955 -23.550932 0.056979 -12.822211 -34.710720 -19.696245 19.745388 48.029045 2.814706 3.651710 -14.447764 0.558558 25.220715 
-54.803989 44.091446 1.370100 179.990234 179.990234 0.527345 20.722656 -0.537109 -0.322266 0.000000 0.000000 0.000000 -27.861326 7.304688 -32.020241 5.585938 2.041015 -0.224609 -2.822266 -0.097656 -0.019515 -52.089844 -10.058594 -22.609127 -0.693359 -5.957031 6.036170 3.398438 -0.849609 -6.162237 2.792969 0.068359 -0.019531 26.972658 27.343752 -81.938873 82.246094 1.708984 4.130859 -2.050781 1.523438 -5.439454 -27.244101 18.768164 0.900990 49.594315 -2.727947 -3.535956 -23.550932 0.056978 -12.822212 -34.710720 -19.696245 19.745388 48.029045 2.814707 3.651710 -14.447766 0.558557 25.220713 
-54.803989 44.091446 1.370100 179.990234 179.990234 0.527345 20.722656 -0.537109 -0.322266 0.000000 0.000000 0.000000 -27.861326 7.304688 -32.020241 5.585938 2.041015 -0.224609 -2.822266 -0.097656 -0.019515 -51.103512 -10.390625 -22.911917 -0.693359 -5.957031 6.036170 3.398438 -0.849609 -6.162237 2.792969 0.068359 -0.019531 26.972658 27.343752 -81.938873 82.246094 1.708984 4.130859 -2.050781 1.523438 -5.439454 -27.244101 18.768164 0.900990 49.594315 -2.727947 -3.535956 -23.550932 0.056978 -12.822212 -34.710720 -19.696245 19.745388 48.029045 2.814707 3.651710 -14.447766 0.558557 25.220713 
-54.803989 44.091454 1.826799 179.990234 179.990234 0.527345 20.722656 -0.537109 -0.322266 0.000000 0.000000 0.000000 -27.861326 7.304688 -32.020241 5.585938 2.041015 -0.224609 -2.822266 -0.097656 -0.019515 -50.292969 -10.742188 -23.126822 -0.693359 -5.957031 6.036170 3.398438 -0.849609 -6.162237 2.792969 0.068359 -0.019531 26.972658 27.343752 -81.938873 82.070313 1.708984 4.130859 -2.050781 1.523438 -5.439454 -27.244101 18.768164 0.900990 49.594315 -2.727946 -3.535956 -23.550932 0.056979 -12.822211 -34.710724 -19.696247 19.745390 48.029045 2.814705 3.651709 -14.447764 0.558556 25.220713 
-54.803989 44.091454 1.826799 179.990234 179.990234 0.527345 20.722656 -0.537109 -0.322266 0.000000 0.000000 0.000000 -27.861326 7.304688 -32.020241 5.585938 2.041015 -0.224609 -2.822266 -0.097656 -0.019515 -49.472656 -11.103515 -23.195240 -0.693359 -5.957031 6.036170 3.398438 -0.849609 -6.162237 2.792969 0.068359 -0.019531 26.972658 27.343752 -81.938873 82.070313 1.708984 4.130859 -2.050781 1.523438 -5.439454 -27.244101 18.768164 0.900990 49.594315 -2.727946 -3.535956 -23.550932 0.056979 -12.822211 -34.710724 -19.696247 19.745390 48.029045 2.814705 3.651709 -14.447764 0.558556 25.220713 
-54.803989 44.091454 2.283500 179.990234 179.990234 0.527345 20.722656 -0.537109 -0.322266 0.000000 0.000000 0.000000 -27.861326 7.304688 -32.020241 5.585938 2.041015 -0.224609 -2.822266 -0.097656 -0.019515 -48.603512 -11.621095 -23.458996 -0.693359 -5.957031 6.036170 3.398438 -0.849609 -6.162237 2.792969 0.068359 -0.019531 26.914063 27.509766 -81.929085 82.070313 1.708984 4.130859 -2.050781 1.523438 -5.439454 -27.244101 18.768164 0.900990 49.594315 -2.727947 -3.535956 -23.550932 0.056978 -12.822212 -34.710720 -19.696245 19.745388 48.029045 2.814706 3.651709 -14.447766 0.558558 25.220715 
-54.803989 44.098682 2.283500 179.990234 179.990234 0.527345 20.722656 -0.537109 -0.322266 0.000000 0.000000 0.000000 -27.871090 7.128906 -32.010509 5.585938 2.041015 -0.224609 -2.822266 -0.097656 -0.019515 -47.783199 -11.953125 -23.703194 -0.693359 -5.957031 6.036170 3.398438 -0.849609 -6.162237 2.792969 0.068359 -0.019531 26.914063 27.509766 -81.929085 82.070313 1.708984 4.130859 -2.050781 1.523438 -5.439454 -27.244101 18.768164 0.900990 49.613407 -2.552250 -3.121485 -23.669716 -0.139038 -12.918043 -34.710720 -19.696245 19.745390 48.003166 2.814709 3.823905 -14.234562 0.595485 25.230810 
-54.803989 43.953957 2.283500 179.990234 179.121094 0.527494 20.722656 -1.523438 -0.693359 0.000000 0.000000 0.000000 -26.953125 6.542969 -42.226555 5.585938 2.041015 13.134766 -2.822266 -0.097656 -0.019515 -50.000000 -11.357421 -23.935545 -13.916016 -5.859375 5.430684 -1.162109 -1.328125 -6.083984 2.792969 0.068359 -0.019531 57.861324 19.550781 -63.945309 84.179688 1.748047 3.964844 0.195313 -9.218744 -11.466399 -27.194008 21.872431 0.852484 50.414097 -4.437049 -3.896368 -26.674582 0.939778 -12.790631 -34.116798 -18.456284 19.572834 52.570930 3.497792 3.935884 -16.353977 -0.982443 24.223660 
-54.347294 43.773037 2.283500 179.990234 178.046875 0.527677 20.742188 -2.500000 -1.083984 0.000000 0.000000 0.000000 -25.947266 6.123047 -52.410564 5.585938 2.041015 26.503904 -2.822266 -0.097656 -0.019515 -51.972656 -10.888672 -24.083876 -27.158201 -5.615234 4.854471 -5.693359 -1.816406 -5.957339 2.792969 0.068359 -0.019531 83.925781 4.707031 -53.046875 86.474609 1.757813 3.798829 3.710938 -19.824217 -18.535154 -27.085600 25.269560 1.177116 51.383240 -5.843400 -4.077665 -29.376719 1.432241 -12.747024 -33.622753 -17.050730 19.518175 57.643478 4.337422 4.519963 -18.444530 -2.697941 22.813271 
-53.890598 43.548710 2.283500 179.990234 176.992188 0.527856 20.771484 -3.486328 -1.455672 0.000000 0.000000 0.000000 -24.882811 5.908203 -62.616184 5.585938 2.041015 39.863274 -2.822266 -0.097656 -0.019515 -54.111328 -10.410157 -24.327936 -40.537109 -5.253906 4.366129 -10.244141 -2.285156 -5.791405 2.792969 0.068359 -0.019531 91.640625 -23.701174 -47.113304 88.613281 1.777344 3.632509 9.179688 -29.921873 -26.772446 -27.020599 28.368128 1.610662 52.332050 -7.315596 -4.694040 -31.892277 2.227326 -12.679462 -33.174648 -15.838984 19.336149 62.394562 5.087611 5.067606 -20.522343 -4.057795 21.740429 
-53.433895 43.324383 1.826799 179.990234 176.123047 0.528004 20.791016 -4.316406 -1.767578 0.000000 0.000000 0.000000 -23.818359 5.869141 -72.831032 5.585938 2.041015 53.222656 -2.822266 -0.097656 -0.019515 -56.191406 -10.087890 -24.406004 -53.740231 -4.794922 3.965660 -14.804686 -2.724609 -5.596168 2.792969 0.068359 -0.019531 103.886719 -49.462887 -59.431252 90.488281 1.757813 3.466797 16.845703 -38.984379 -37.047157 -27.048035 31.539707 1.374777 53.047966 -9.190689 -4.825330 -34.780602 2.801394 -12.275168 -32.533958 -14.579493 19.171185 67.160629 5.762242 5.532724 -23.033037 -5.328121 20.230068 
